<svg width="39" height="39" viewBox="0 0 39 39" fill="none" xmlns="http://www.w3.org/2000/svg">
<g clip-path="url(#clip0_77_1697)">
<path d="M19.4642 26.4127C23.3923 26.4127 26.5767 23.2283 26.5767 19.3002C26.5767 15.3721 23.3923 12.1877 19.4642 12.1877C15.5361 12.1877 12.3517 15.3721 12.3517 19.3002C12.3517 23.2283 15.5361 26.4127 19.4642 26.4127Z" stroke="#E5F240" stroke-width="1.4178" stroke-linecap="round" stroke-linejoin="round"/>
<path d="M19.4642 12.1877C17.6379 14.1053 16.6192 16.652 16.6192 19.3002C16.6192 21.9483 17.6379 24.495 19.4642 26.4127C21.2905 24.495 22.3092 21.9483 22.3092 19.3002C22.3092 16.652 21.2905 14.1053 19.4642 12.1877Z" stroke="#E5F240" stroke-width="1.4178" stroke-linecap="round" stroke-linejoin="round"/>
<path d="M12.3517 19.3002H26.5767" stroke="#E5F240" stroke-width="1.4178" stroke-linecap="round" stroke-linejoin="round"/>
</g>
<path d="M38.1259 19.063C38.1259 29.5911 29.5911 38.1259 19.063 38.1259C8.53478 38.1259 0 29.5911 0 19.063C0 8.53478 8.53478 0 19.063 0C29.5911 0 38.1259 8.53478 38.1259 19.063Z" fill="white" fill-opacity="0.05"/>
<defs>
<clipPath id="clip0_77_1697">
<rect width="17.0136" height="17.0136" fill="white" transform="translate(10.9292 10.7652) scale(1.00331)"/>
</clipPath>
</defs>
</svg>
