<svg width="16" height="16" viewBox="0 0 16 16" fill="none" xmlns="http://www.w3.org/2000/svg">
<g clip-path="url(#clip0_37_330)">
<path d="M14.5255 6.66283C14.8298 8.15616 14.613 9.70867 13.9111 11.0615C13.2093 12.4143 12.0649 13.4856 10.6688 14.0967C9.27269 14.7079 7.70926 14.8219 6.23923 14.4199C4.7692 14.0179 3.48142 13.124 2.59067 11.8874C1.69991 10.6508 1.26 9.14621 1.34432 7.62453C1.42863 6.10284 2.03206 4.65605 3.05398 3.52543C4.0759 2.39481 5.45454 1.6487 6.95999 1.41152C8.46543 1.17434 10.0067 1.46043 11.3267 2.22208" stroke="#E5F240" stroke-width="1.33256" stroke-linecap="round" stroke-linejoin="round"/>
<path d="M5.99652 7.329L7.99536 9.32783L14.6582 2.66504" stroke="#E5F240" stroke-width="1.33256" stroke-linecap="round" stroke-linejoin="round"/>
</g>
<defs>
<clipPath id="clip0_37_330">
<rect width="15.9907" height="15.9907" fill="white"/>
</clipPath>
</defs>
</svg>
