<svg width="17" height="17" viewBox="0 0 17 17" fill="none" xmlns="http://www.w3.org/2000/svg">
<path d="M13.8208 8.98361C13.8208 12.4388 11.4022 14.1664 8.52746 15.1684C8.37692 15.2194 8.2134 15.217 8.06446 15.1615C5.18281 14.1664 2.76417 12.4388 2.76417 8.98361V4.14631C2.76417 3.96304 2.83697 3.78727 2.96657 3.65767C3.09616 3.52808 3.27193 3.45527 3.45521 3.45527C4.83729 3.45527 6.5649 2.62602 7.76731 1.57564C7.91371 1.45056 8.09995 1.38184 8.2925 1.38184C8.48506 1.38184 8.67129 1.45056 8.81769 1.57564C10.027 2.63293 11.7477 3.45527 13.1298 3.45527C13.3131 3.45527 13.4888 3.52808 13.6184 3.65767C13.748 3.78727 13.8208 3.96304 13.8208 4.14631V8.98361Z" stroke="#F4F4F4" stroke-width="1.38208" stroke-linecap="round" stroke-linejoin="round"/>
</svg>
