<svg width="17" height="17" viewBox="0 0 17 17" fill="none" xmlns="http://www.w3.org/2000/svg">
<g clip-path="url(#clip0_23_5213)">
<path d="M15.0654 6.91033C15.381 8.45916 15.1561 10.0694 14.4282 11.4724C13.7002 12.8755 12.5133 13.9866 11.0653 14.6205C9.61732 15.2544 7.99578 15.3727 6.47112 14.9557C4.94645 14.5387 3.61082 13.6116 2.68696 12.3291C1.76309 11.0465 1.30684 9.486 1.39429 7.90777C1.48173 6.32953 2.10759 4.82897 3.16749 3.65633C4.22739 2.48369 5.65727 1.70984 7.21866 1.46385C8.78006 1.21785 10.3786 1.51458 11.7477 2.30453" stroke="#F4F4F4" stroke-width="1.38208" stroke-linecap="round" stroke-linejoin="round"/>
<path d="M6.21938 7.60145L8.29251 9.67458L15.2029 2.76416" stroke="#F4F4F4" stroke-width="1.38208" stroke-linecap="round" stroke-linejoin="round"/>
</g>
<defs>
<clipPath id="clip0_23_5213">
<rect width="16.585" height="16.585" fill="white"/>
</clipPath>
</defs>
</svg>
