<svg width="17" height="17" viewBox="0 0 17 17" fill="none" xmlns="http://www.w3.org/2000/svg">
<g clip-path="url(#clip0_23_5181)">
<path d="M10.3656 1.38232H4.14625C3.7797 1.38232 3.42816 1.52794 3.16897 1.78713C2.90978 2.04632 2.76417 2.39786 2.76417 2.76441V13.8211C2.76417 14.1876 2.90978 14.5392 3.16897 14.7984C3.42816 15.0575 3.7797 15.2032 4.14625 15.2032H12.4388C12.8053 15.2032 13.1568 15.0575 13.416 14.7984C13.6752 14.5392 13.8208 14.1876 13.8208 13.8211V4.83753L10.3656 1.38232Z" stroke="#F4F4F4" stroke-width="1.38208" stroke-linecap="round" stroke-linejoin="round"/>
<path d="M9.67458 1.38232V4.14649C9.67458 4.51304 9.82019 4.86458 10.0794 5.12377C10.3386 5.38296 10.6901 5.52858 11.0567 5.52858H13.8208" stroke="#F4F4F4" stroke-width="1.38208" stroke-linecap="round" stroke-linejoin="round"/>
<path d="M6.91042 6.21924H5.52834" stroke="#F4F4F4" stroke-width="1.38208" stroke-linecap="round" stroke-linejoin="round"/>
<path d="M11.0567 8.98389H5.52834" stroke="#F4F4F4" stroke-width="1.38208" stroke-linecap="round" stroke-linejoin="round"/>
<path d="M11.0567 11.7478H5.52834" stroke="#F4F4F4" stroke-width="1.38208" stroke-linecap="round" stroke-linejoin="round"/>
</g>
<defs>
<clipPath id="clip0_23_5181">
<rect width="16.585" height="16.585" fill="white"/>
</clipPath>
</defs>
</svg>
