<svg width="16" height="16" viewBox="0 0 16 16" fill="none" xmlns="http://www.w3.org/2000/svg">
  <!-- 3D Cube shape -->
  <!-- Top face -->
  <path d="M3.5 5.5L8 3L12.5 5.5L8 8L3.5 5.5Z" stroke="currentColor" stroke-width="1.5" fill="none" stroke-linejoin="round"/>
  <!-- Front face -->
  <path d="M3.5 5.5L3.5 10.5L8 12.5L8 8L3.5 5.5Z" stroke="currentColor" stroke-width="1.5" fill="none" stroke-linejoin="round"/>
  <!-- Right face -->
  <path d="M12.5 5.5L12.5 10.5L8 12.5L8 8L12.5 5.5Z" stroke="currentColor" stroke-width="1.5" fill="none" stroke-linejoin="round"/>
  <!-- Question marks - larger and clearer -->
  <!-- Top face question mark -->
  <path d="M7 4.5C7 4.2 7.2 4 7.5 4C7.8 4 8 4.2 8 4.5C8 4.8 7.8 5 7.5 5C7.2 5 7 4.8 7 4.5Z" fill="currentColor"/>
  <path d="M7.5 5.5V6.5" stroke="currentColor" stroke-width="1.5" stroke-linecap="round"/>
  <!-- Front face question mark -->
  <path d="M5.5 7.5C5.5 7.2 5.7 7 6 7C6.3 7 6.5 7.2 6.5 7.5C6.5 7.8 6.3 8 6 8C5.7 8 5.5 7.8 5.5 7.5Z" fill="currentColor"/>
  <path d="M6 8.5V9.5" stroke="currentColor" stroke-width="1.5" stroke-linecap="round"/>
  <!-- Right face question mark -->
  <path d="M9.5 7.5C9.5 7.2 9.7 7 10 7C10.3 7 10.5 7.2 10.5 7.5C10.5 7.8 10.3 8 10 8C9.7 8 9.5 7.8 9.5 7.5Z" fill="currentColor"/>
  <path d="M10 8.5V9.5" stroke="currentColor" stroke-width="1.5" stroke-linecap="round"/>
</svg>

