<svg width="21" height="21" viewBox="0 0 21 21" fill="none" xmlns="http://www.w3.org/2000/svg">
<path d="M6.91602 12.1031C9.78074 12.1031 12.103 9.7808 12.103 6.91608C12.103 4.05137 9.78074 1.72906 6.91602 1.72906C4.05131 1.72906 1.729 4.05137 1.729 6.91608C1.729 9.7808 4.05131 12.1031 6.91602 12.1031Z" stroke="#939393" stroke-width="1.72901" stroke-linecap="round" stroke-linejoin="round"/>
<path d="M15.6389 8.9649C16.4561 9.26958 17.1833 9.7754 17.7532 10.4356C18.3232 11.0958 18.7174 11.889 18.8995 12.742C19.0817 13.5949 19.0458 14.48 18.7952 15.3154C18.5446 16.1508 18.0874 16.9095 17.4659 17.5214C16.8444 18.1333 16.0787 18.5786 15.2394 18.8161C14.4002 19.0536 13.5147 19.0757 12.6647 18.8803C11.8147 18.6849 11.0277 18.2783 10.3765 17.6981C9.72527 17.1179 9.23085 16.3829 8.93896 15.5611" stroke="#939393" stroke-width="1.72901" stroke-linecap="round" stroke-linejoin="round"/>
<path d="M6.05151 5.18701H6.91602V8.64502" stroke="#939393" stroke-width="1.72901" stroke-linecap="round" stroke-linejoin="round"/>
<path d="M14.4458 11.9993L15.051 12.6131L12.6131 15.051" stroke="#939393" stroke-width="1.72901" stroke-linecap="round" stroke-linejoin="round"/>
</svg>
