<svg width="20" height="20" viewBox="0 0 20 20" fill="none" xmlns="http://www.w3.org/2000/svg">
<g clip-path="url(#clip0_62_631)">
<path fill-rule="evenodd" clip-rule="evenodd" d="M9.96094 0C11.9388 0 13.8721 0.58649 15.5166 1.6853C17.1611 2.78412 18.4429 4.3459 19.1997 6.17317C19.9566 8.00043 20.1546 10.0111 19.7688 11.9509C19.3829 13.8907 18.4305 15.6725 17.032 17.0711C15.6335 18.4696 13.8517 19.422 11.9118 19.8079C9.97203 20.1937 7.96137 19.9957 6.1341 19.2388C4.30684 18.4819 2.74506 17.2002 1.64624 15.5557C0.547427 13.9112 -0.0390625 11.9778 -0.0390625 10C-0.0390625 7.34783 1.01451 4.8043 2.88987 2.92893C4.76523 1.05357 7.30877 0 9.96094 0V0Z" fill="white"/>
<path fill-rule="evenodd" clip-rule="evenodd" d="M9.96092 2.14722L12.5918 6.07813L15.2227 10.0099L9.96092 12.6609L4.6991 9.99994L7.33001 6.06813L9.96092 2.14722ZM9.96092 13.7199L4.99092 11.0681L9.96092 17.8527L14.9309 11.0681L9.96092 13.7199Z" fill="#343434"/>
<path fill-rule="evenodd" clip-rule="evenodd" d="M9.96094 2.14722L12.5918 6.06813L15.2228 9.99994L9.96094 8.01358V2.14722Z" fill="#343434"/>
<path fill-rule="evenodd" clip-rule="evenodd" d="M9.96094 13.7199L14.9409 11.0681L9.96094 17.8627V13.7199Z" fill="#313131"/>
<path fill-rule="evenodd" clip-rule="evenodd" d="M9.96094 8.01367L15.2228 10L9.96094 12.6509V8.01367Z" fill="#151515"/>
<path fill-rule="evenodd" clip-rule="evenodd" d="M9.96091 2.14722L7.33001 6.06813L4.6991 9.99994L9.96091 8.01358V2.14722Z" fill="#8C8C8C"/>
<path fill-rule="evenodd" clip-rule="evenodd" d="M9.96097 13.7199L4.99097 11.0681L9.96097 17.8627V13.7199Z" fill="#8A8A8A"/>
<path fill-rule="evenodd" clip-rule="evenodd" d="M9.96091 8.01367L4.6991 10L9.96091 12.6509V8.01367Z" fill="#353535"/>
</g>
<defs>
<clipPath id="clip0_62_631">
<rect width="20" height="20" fill="white"/>
</clipPath>
</defs>
</svg>
