<svg width="42" height="42" viewBox="0 0 42 42" fill="none" xmlns="http://www.w3.org/2000/svg">
<path d="M28.002 21.8753C28.002 26.2516 24.9386 28.4397 21.2976 29.7089C21.1069 29.7735 20.8998 29.7704 20.7111 29.7001C17.0613 28.4397 13.9979 26.2516 13.9979 21.8753V15.7485C13.9979 15.5164 14.0902 15.2938 14.2543 15.1296C14.4184 14.9655 14.6411 14.8733 14.8732 14.8733C16.6237 14.8733 18.8118 13.823 20.3348 12.4926C20.5202 12.3342 20.7561 12.2471 21 12.2471C21.2439 12.2471 21.4797 12.3342 21.6652 12.4926C23.1969 13.8317 25.3763 14.8733 27.1268 14.8733C27.3589 14.8733 27.5815 14.9655 27.7457 15.1296C27.9098 15.2938 28.002 15.5164 28.002 15.7485V21.8753Z" stroke="#939393" stroke-width="1.72901" stroke-linecap="round" stroke-linejoin="round"/>
</svg>
