<svg width="18" height="18" viewBox="0 0 18 18" fill="none" xmlns="http://www.w3.org/2000/svg">
<path d="M13.4691 4.9623V2.8356C13.4691 2.64759 13.3944 2.46728 13.2615 2.33433C13.1285 2.20139 12.9482 2.1267 12.7602 2.1267H3.54451C3.16848 2.1267 2.80786 2.27608 2.54197 2.54197C2.27608 2.80785 2.12671 3.16848 2.12671 3.5445C2.12671 3.92052 2.27608 4.28115 2.54197 4.54704C2.80786 4.81292 3.16848 4.9623 3.54451 4.9623H14.178C14.366 4.9623 14.5463 5.03699 14.6793 5.16993C14.8122 5.30288 14.8869 5.48319 14.8869 5.6712V8.5068M14.8869 8.5068H12.7602C12.3842 8.5068 12.0236 8.65617 11.7577 8.92206C11.4918 9.18795 11.3424 9.54857 11.3424 9.9246C11.3424 10.3006 11.4918 10.6612 11.7577 10.9271C12.0236 11.193 12.3842 11.3424 12.7602 11.3424H14.8869C15.0749 11.3424 15.2552 11.2677 15.3882 11.1348C15.5211 11.0018 15.5958 10.8215 15.5958 10.6335V9.2157C15.5958 9.02769 15.5211 8.84737 15.3882 8.71443C15.2552 8.58148 15.0749 8.5068 14.8869 8.5068Z" stroke="#13131C" stroke-width="1.4178" stroke-linecap="round" stroke-linejoin="round"/>
<path d="M2.12671 3.5445V13.4691C2.12671 13.8451 2.27608 14.2057 2.54197 14.4716C2.80786 14.7375 3.16848 14.8869 3.54451 14.8869H14.178C14.366 14.8869 14.5463 14.8122 14.6793 14.6793C14.8122 14.5463 14.8869 14.366 14.8869 14.178V11.3424" stroke="#13131C" stroke-width="1.4178" stroke-linecap="round" stroke-linejoin="round"/>
</svg>
