<svg width="21" height="21" viewBox="0 0 21 21" fill="none" xmlns="http://www.w3.org/2000/svg">
<path d="M11.0343 8.11668C11.1448 8.11668 11.2508 8.16058 11.3289 8.23872C11.407 8.31686 11.4509 8.42284 11.4509 8.53334C11.4509 8.64385 11.4948 8.74983 11.573 8.82797C11.6511 8.90611 11.7571 8.95001 11.8676 8.95001C11.9781 8.95001 12.0841 8.90611 12.1622 8.82797C12.2404 8.74983 12.2843 8.64385 12.2843 8.53334C12.2843 8.20182 12.1526 7.88388 11.9182 7.64946C11.6837 7.41504 11.3658 7.28334 11.0343 7.28334H10.6176V6.86668C10.6176 6.75617 10.5737 6.65019 10.4956 6.57205C10.4174 6.49391 10.3115 6.45001 10.2009 6.45001C10.0904 6.45001 9.98446 6.49391 9.90632 6.57205C9.82818 6.65019 9.78428 6.75617 9.78428 6.86668V7.28334H9.36761C9.03609 7.28334 8.71815 7.41504 8.48373 7.64946C8.24931 7.88388 8.11761 8.20182 8.11761 8.53334V9.36668C8.11761 9.6982 8.24931 10.0161 8.48373 10.2506C8.71815 10.485 9.03609 10.6167 9.36761 10.6167H9.78428V12.2833H9.36761C9.25711 12.2833 9.15113 12.2394 9.07299 12.1613C8.99485 12.0832 8.95095 11.9772 8.95095 11.8667C8.95095 11.7562 8.90705 11.6502 8.82891 11.572C8.75077 11.4939 8.64479 11.45 8.53428 11.45C8.42377 11.45 8.31779 11.4939 8.23965 11.572C8.16151 11.6502 8.11761 11.7562 8.11761 11.8667C8.11761 12.1982 8.24931 12.5161 8.48373 12.7506C8.71815 12.985 9.03609 13.1167 9.36761 13.1167H9.78428V13.5333C9.78428 13.6438 9.82818 13.7498 9.90632 13.828C9.98446 13.9061 10.0904 13.95 10.2009 13.95C10.3115 13.95 10.4174 13.9061 10.4956 13.828C10.5737 13.7498 10.6176 13.6438 10.6176 13.5333V13.1167H11.0343C11.3658 13.1167 11.6837 12.985 11.9182 12.7506C12.1526 12.5161 12.2843 12.1982 12.2843 11.8667V11.0333C12.2843 10.7018 12.1526 10.3839 11.9182 10.1495C11.6837 9.91504 11.3658 9.78334 11.0343 9.78334H10.6176V8.11668H11.0343ZM11.0343 10.6167C11.1448 10.6167 11.2508 10.6606 11.3289 10.7387C11.407 10.8169 11.4509 10.9228 11.4509 11.0333V11.8667C11.4509 11.9772 11.407 12.0832 11.3289 12.1613C11.2508 12.2394 11.1448 12.2833 11.0343 12.2833H10.6176V10.6167H11.0343ZM9.78428 9.78334H9.36761C9.25711 9.78334 9.15113 9.73944 9.07299 9.6613C8.99485 9.58316 8.95095 9.47718 8.95095 9.36668V8.53334C8.95095 8.42284 8.99485 8.31686 9.07299 8.23872C9.15113 8.16058 9.25711 8.11668 9.36761 8.11668H9.78428V9.78334Z" fill="#E5F240"/>
<path d="M10.574 0.107239C12.4406 0.176395 14.2542 0.762128 15.8113 1.80255C17.4721 2.91231 18.7666 4.4894 19.5311 6.33478C20.2955 8.18031 20.496 10.2115 20.1063 12.1707C19.7165 14.1298 18.7541 15.9292 17.3416 17.3416C15.9292 18.7541 14.1298 19.7165 12.1707 20.1063C10.2115 20.496 8.18031 20.2955 6.33478 19.5311C4.48939 18.7667 2.91231 17.4721 1.80255 15.8113C0.69275 14.1504 0.100403 12.1976 0.100403 10.2C0.100405 10.063 0.154878 9.93167 0.25177 9.83478C0.348648 9.73799 0.480055 9.68341 0.617004 9.68341H4.28986C4.41312 8.29526 5.01983 6.99348 6.00665 6.00665C6.99348 5.01983 8.29526 4.41311 9.68341 4.28986V2.28302C9.6835 2.14612 9.73796 2.0146 9.83478 1.91779C9.93165 1.821 10.0631 1.76642 10.2 1.76642C10.337 1.76642 10.4684 1.821 10.5652 1.91779C10.6621 2.0146 10.7165 2.14612 10.7166 2.28302V4.29083C11.7818 4.3838 12.8025 4.76149 13.6707 5.38751C14.5642 6.03174 15.2609 6.91186 15.6824 7.9295C16.1039 8.94708 16.2336 10.062 16.0574 11.1492C15.8862 12.2057 15.4303 13.1937 14.743 14.0125L16.9647 16.2342C17.8765 15.2112 18.5465 13.9959 18.9207 12.6766C19.3044 11.3236 19.3686 9.89924 19.1072 8.5174C18.8459 7.13571 18.266 5.83397 17.4149 4.71466C16.5636 3.59532 15.4637 2.68919 14.202 2.06818C12.9402 1.44716 11.5507 1.12825 10.1443 1.13654C8.73814 1.14487 7.35275 1.48024 6.09845 2.11603C4.84424 2.75186 3.75476 3.67039 2.91681 4.79962C2.13116 5.85837 1.58707 7.07512 1.32013 8.36407L1.27032 8.62286C1.24931 8.7424 1.18646 8.85042 1.09357 8.92853C1.0006 9.00667 0.882981 9.04951 0.761536 9.04962C0.731559 9.0496 0.701223 9.0479 0.671692 9.04279V9.04181C0.605046 9.03013 0.541334 9.00578 0.484192 8.96954C0.426878 8.93315 0.376718 8.88546 0.337708 8.8299C0.298814 8.77441 0.271386 8.71147 0.256653 8.64532C0.241963 8.57921 0.240085 8.51087 0.25177 8.44415C0.660627 6.1041 1.88296 3.98349 3.70294 2.45685C5.52308 0.930224 7.82442 0.0957458 10.2 0.100403L10.574 0.107239ZM10.907 5.34454C9.70175 5.16768 8.47338 5.44521 7.46173 6.12384C6.45007 6.80264 5.72677 7.83398 5.43341 9.01642C5.14011 10.1989 5.29765 11.4484 5.87482 12.5213C6.45204 13.5943 7.40804 14.4142 8.55646 14.8211C9.70479 15.2279 10.9638 15.1935 12.0877 14.7234C12.2141 14.6707 12.3565 14.6695 12.4832 14.7215C12.6099 14.7735 12.7106 14.8744 12.7635 15.0008C12.8163 15.1272 12.8165 15.2695 12.7645 15.3963C12.7124 15.523 12.6125 15.6237 12.4861 15.6766C11.6173 16.0384 10.6744 16.189 9.73615 16.1151C8.79808 16.041 7.89089 15.7452 7.08966 15.2518C6.2883 14.7582 5.61601 14.0808 5.12775 13.2762C4.65562 12.4982 4.37055 11.6223 4.29083 10.7166H1.15021C1.28385 13.0076 2.27821 15.1646 3.93927 16.7518C5.62566 18.3631 7.86756 19.2635 10.2 19.2664C12.4283 19.2728 14.5771 18.4508 16.2342 16.9647L13.6649 14.3953C13.568 14.2985 13.5135 14.1671 13.5135 14.0301C13.5135 13.8931 13.568 13.7617 13.6649 13.6649C14.526 12.803 15.0357 11.6513 15.0945 10.4344C15.1533 9.21744 14.7572 8.02177 13.9832 7.08087C13.2092 6.14007 12.1124 5.52151 10.907 5.34454Z" fill="#E5F240" stroke="#E5F240" stroke-width="0.2"/>
</svg>
