<svg width="20" height="20" viewBox="0 0 20 20" fill="none" xmlns="http://www.w3.org/2000/svg">
<path d="M12.4945 17.4924V10.8286C12.4945 10.6077 12.4068 10.3959 12.2506 10.2396C12.0943 10.0834 11.8825 9.99567 11.6616 9.99567H8.32967C8.10876 9.99567 7.89689 10.0834 7.74068 10.2396C7.58446 10.3959 7.4967 10.6077 7.4967 10.8286V17.4924" stroke="#939393" stroke-width="1.66594" stroke-linecap="round" stroke-linejoin="round"/>
<path d="M2.4989 8.32969C2.49884 8.08735 2.55166 7.84792 2.65366 7.62809C2.75566 7.40827 2.90439 7.21334 3.08948 7.05691L8.92027 2.05909C9.22096 1.80496 9.60194 1.66553 9.99564 1.66553C10.3893 1.66553 10.7703 1.80496 11.071 2.05909L16.9018 7.05691C17.0869 7.21334 17.2356 7.40827 17.3376 7.62809C17.4396 7.84792 17.4924 8.08735 17.4924 8.32969V15.8264C17.4924 16.2683 17.3169 16.692 17.0044 17.0044C16.692 17.3168 16.2683 17.4924 15.8264 17.4924H4.16484C3.72301 17.4924 3.29927 17.3168 2.98684 17.0044C2.67442 16.692 2.4989 16.2683 2.4989 15.8264V8.32969Z" stroke="#939393" stroke-width="1.66594" stroke-linecap="round" stroke-linejoin="round"/>
</svg>
