<svg viewBox="0 0 11 11" fill="none" xmlns="http://www.w3.org/2000/svg">
<path fill-rule="evenodd" clip-rule="evenodd" d="M5.06112 9.11009C2.82497 9.11009 1.01221 7.29734 1.01221 5.06118C1.01221 2.82503 2.82497 1.01227 5.06112 1.01227C7.29728 1.01227 9.11003 2.82503 9.11003 5.06118C9.11003 7.29734 7.29728 9.11009 5.06112 9.11009ZM5.06112 8.35092C6.87802 8.35092 8.35086 6.87808 8.35086 5.06118C8.35086 3.24431 6.87802 1.77144 5.06112 1.77144C3.24425 1.77144 1.77138 3.24431 1.77138 5.06118C1.77138 6.87808 3.24425 8.35092 5.06112 8.35092ZM5.4407 4.80812H7.08557V5.56729H4.68153V2.53061H5.4407V4.80812Z" fill="#F4F4F4"/>
</svg>
