<svg width="25" height="25" viewBox="0 0 25 25" fill="none" xmlns="http://www.w3.org/2000/svg">
<path d="M18.9538 13.3164C18.9538 17.4032 16.1303 19.4465 12.7742 20.6317C12.5985 20.6921 12.4076 20.6892 12.2337 20.6235C8.86961 19.4465 6.04602 17.4032 6.04602 13.3164V7.59485C6.04602 7.37807 6.13102 7.17017 6.28231 7.01689C6.4336 6.8636 6.6388 6.77749 6.85276 6.77749C8.46624 6.77749 10.4831 5.79666 11.8868 4.55427C12.0577 4.40633 12.2751 4.32504 12.4999 4.32504C12.7247 4.32504 12.9421 4.40633 13.1131 4.55427C14.5249 5.80483 16.5336 6.77749 18.1471 6.77749C18.3611 6.77749 18.5663 6.8636 18.7176 7.01689C18.8689 7.17017 18.9538 7.37807 18.9538 7.59485V13.3164Z" stroke="#13131C" stroke-width="2.42101" stroke-linecap="round" stroke-linejoin="round"/>
</svg>
