<svg width="21" height="21" viewBox="0 0 21 21" fill="none" xmlns="http://www.w3.org/2000/svg">
<path d="M16.4256 6.05152V3.45801C16.4256 3.22873 16.3345 3.00884 16.1724 2.84671C16.0102 2.68459 15.7903 2.59351 15.5611 2.59351H4.32251C3.86395 2.59351 3.42417 2.77567 3.09992 3.09992C2.77567 3.42417 2.59351 3.86395 2.59351 4.32251C2.59351 4.78107 2.77567 5.22085 3.09992 5.5451C3.42417 5.86936 3.86395 6.05152 4.32251 6.05152H17.2901C17.5193 6.05152 17.7392 6.1426 17.9014 6.30473C18.0635 6.46685 18.1546 6.68674 18.1546 6.91602V10.374M18.1546 10.374H15.5611C15.1025 10.374 14.6627 10.5562 14.3385 10.8804C14.0142 11.2047 13.832 11.6445 13.832 12.103C13.832 12.5616 14.0142 13.0014 14.3385 13.3256C14.6627 13.6499 15.1025 13.832 15.5611 13.832H18.1546C18.3838 13.832 18.6037 13.741 18.7659 13.5788C18.928 13.4167 19.0191 13.1968 19.0191 12.9675V11.2385C19.0191 11.0093 18.928 10.7894 18.7659 10.6272C18.6037 10.4651 18.3838 10.374 18.1546 10.374Z" stroke="#939393" stroke-width="1.72901" stroke-linecap="round" stroke-linejoin="round"/>
<path d="M2.59351 4.32257V16.4256C2.59351 16.8842 2.77567 17.324 3.09992 17.6482C3.42417 17.9725 3.86395 18.1546 4.32251 18.1546H17.2901C17.5193 18.1546 17.7392 18.0635 17.9014 17.9014C18.0635 17.7393 18.1546 17.5194 18.1546 17.2901V13.8321" stroke="#939393" stroke-width="1.72901" stroke-linecap="round" stroke-linejoin="round"/>
</svg>
