<svg width="42" height="42" viewBox="0 0 42 42" fill="none" xmlns="http://www.w3.org/2000/svg">
<path d="M17.499 22.7506C20.3993 22.7506 22.7505 20.3994 22.7505 17.499C22.7505 14.5987 20.3993 12.2475 17.499 12.2475C14.5986 12.2475 12.2474 14.5987 12.2474 17.499C12.2474 20.3994 14.5986 22.7506 17.499 22.7506Z" stroke="#939393" stroke-width="1.72901" stroke-linecap="round" stroke-linejoin="round"/>
<path d="M26.3303 19.5733C27.1577 19.8818 27.8939 20.3939 28.4709 21.0623C29.048 21.7307 29.4471 22.5338 29.6315 23.3974C29.8159 24.2609 29.7796 25.157 29.5259 26.0028C29.2722 26.8486 28.8093 27.6168 28.1801 28.2363C27.5508 28.8558 26.7755 29.3066 25.9259 29.5471C25.0763 29.7875 24.1797 29.8099 23.3191 29.612C22.4586 29.4142 21.6618 29.0025 21.0025 28.4151C20.3431 27.8278 19.8426 27.0836 19.5471 26.2515" stroke="#939393" stroke-width="1.72901" stroke-linecap="round" stroke-linejoin="round"/>
<path d="M16.6237 15.7484H17.499V19.2495" stroke="#939393" stroke-width="1.72901" stroke-linecap="round" stroke-linejoin="round"/>
<path d="M25.1224 22.6455L25.7351 23.2669L23.2669 25.7351" stroke="#939393" stroke-width="1.72901" stroke-linecap="round" stroke-linejoin="round"/>
</svg>
