<svg width="42" height="42" viewBox="0 0 42 42" fill="none" xmlns="http://www.w3.org/2000/svg">
<path d="M27.1268 16.6236V13.9979C27.1268 13.7657 27.0346 13.5431 26.8705 13.379C26.7063 13.2148 26.4837 13.1226 26.2516 13.1226H14.8733C14.409 13.1226 13.9637 13.3071 13.6355 13.6353C13.3072 13.9636 13.1227 14.4089 13.1227 14.8731C13.1227 15.3374 13.3072 15.7826 13.6355 16.1109C13.9637 16.4392 14.409 16.6236 14.8733 16.6236H28.0021C28.2342 16.6236 28.4568 16.7159 28.621 16.88C28.7851 17.0441 28.8773 17.2668 28.8773 17.4989V20.9999M28.8773 20.9999H26.2516C25.7873 20.9999 25.3421 21.1843 25.0138 21.5126C24.6855 21.8409 24.5011 22.2862 24.5011 22.7504C24.5011 23.2147 24.6855 23.6599 25.0138 23.9882C25.3421 24.3165 25.7873 24.5009 26.2516 24.5009H28.8773C29.1095 24.5009 29.3321 24.4087 29.4962 24.2446C29.6604 24.0804 29.7526 23.8578 29.7526 23.6257V21.8752C29.7526 21.643 29.6604 21.4204 29.4962 21.2563C29.3321 21.0921 29.1095 20.9999 28.8773 20.9999Z" stroke="#939393" stroke-width="1.72901" stroke-linecap="round" stroke-linejoin="round"/>
<path d="M13.1227 14.8732V27.1268C13.1227 27.591 13.3072 28.0363 13.6355 28.3646C13.9637 28.6928 14.409 28.8773 14.8733 28.8773H28.0021C28.2342 28.8773 28.4568 28.7851 28.621 28.6209C28.7851 28.4568 28.8773 28.2341 28.8773 28.002V24.501" stroke="#939393" stroke-width="1.72901" stroke-linecap="round" stroke-linejoin="round"/>
</svg>
