<svg width="42" height="42" viewBox="0 0 42 42" fill="none" xmlns="http://www.w3.org/2000/svg">
<path d="M0 21C0 9.40202 9.40202 0 21 0C32.598 0 42 9.40202 42 21C42 32.598 32.598 42 21 42C9.40202 42 0 32.598 0 21Z" fill="#E5F240"/>
<path d="M23.6258 28.8773V21.8753C23.6258 21.6432 23.5336 21.4205 23.3694 21.2564C23.2053 21.0922 22.9827 21 22.7505 21H19.2495C19.0174 21 18.7948 21.0922 18.6306 21.2564C18.4665 21.4205 18.3743 21.6432 18.3743 21.8753V28.8773" stroke="#151515" stroke-width="1.72901" stroke-linecap="round" stroke-linejoin="round"/>
<path d="M13.1227 19.2495C13.1227 18.9949 13.1782 18.7433 13.2854 18.5123C13.3925 18.2813 13.5488 18.0765 13.7433 17.9121L19.8701 12.6606C20.186 12.3936 20.5864 12.2471 21 12.2471C21.4137 12.2471 21.814 12.3936 22.13 12.6606L28.2568 17.9121C28.4513 18.0765 28.6075 18.2813 28.7147 18.5123C28.8219 18.7433 28.8774 18.9949 28.8773 19.2495V27.1268C28.8773 27.5911 28.6929 28.0363 28.3646 28.3646C28.0363 28.6929 27.5911 28.8773 27.1268 28.8773H14.8733C14.409 28.8773 13.9637 28.6929 13.6355 28.3646C13.3072 28.0363 13.1227 27.5911 13.1227 27.1268V19.2495Z" stroke="#151515" stroke-width="1.72901" stroke-linecap="round" stroke-linejoin="round"/>
</svg>
