<svg width="40" height="40" viewBox="0 0 40 40" fill="none" xmlns="http://www.w3.org/2000/svg">
<path d="M22.5007 27.5022V20.8336C22.5007 20.6125 22.4129 20.4005 22.2566 20.2441C22.1003 20.0878 21.8882 20 21.6672 20H18.3329C18.1118 20 17.8998 20.0878 17.7434 20.2441C17.5871 20.4005 17.4993 20.6125 17.4993 20.8336V27.5022" stroke="#939393" stroke-width="1.66594" stroke-linecap="round" stroke-linejoin="round"/>
<path d="M12.4978 18.3328C12.4978 18.0903 12.5506 17.8507 12.6527 17.6307C12.7548 17.4107 12.9036 17.2157 13.0889 17.0591L18.9239 12.0577C19.2248 11.8033 19.606 11.6638 20 11.6638C20.394 11.6638 20.7753 11.8033 21.0762 12.0577L26.9112 17.0591C27.0964 17.2157 27.2453 17.4107 27.3473 17.6307C27.4494 17.8507 27.5023 18.0903 27.5022 18.3328V25.835C27.5022 26.2772 27.3266 26.7012 27.0139 27.0138C26.7013 27.3265 26.2772 27.5021 25.8351 27.5021H14.165C13.7228 27.5021 13.2988 27.3265 12.9861 27.0138C12.6735 26.7012 12.4978 26.2772 12.4978 25.835V18.3328Z" stroke="#939393" stroke-width="1.66594" stroke-linecap="round" stroke-linejoin="round"/>
</svg>
