<svg width="40" height="40" viewBox="0 0 40 40" fill="none" xmlns="http://www.w3.org/2000/svg">
<path d="M0 20C0 8.95431 8.95431 0 20 0C31.0457 0 40 8.95431 40 20C40 31.0457 31.0457 40 20 40C8.95431 40 0 31.0457 0 20Z" fill="#E5F240"/>
<g clip-path="url(#clip0_29_498)">
<path d="M26.6686 20.8336C26.6686 25.0015 23.7511 27.0854 20.2834 28.2941C20.1018 28.3556 19.9046 28.3527 19.7249 28.2857C16.2489 27.0854 13.3314 25.0015 13.3314 20.8336V14.9985C13.3314 14.7775 13.4192 14.5654 13.5755 14.4091C13.7319 14.2528 13.9439 14.165 14.165 14.165C15.8321 14.165 17.9161 13.1647 19.3665 11.8976C19.5431 11.7468 19.7677 11.6639 20 11.6639C20.2323 11.6639 20.4569 11.7468 20.6335 11.8976C22.0923 13.173 24.1679 14.165 25.835 14.165C26.0561 14.165 26.2681 14.2528 26.4245 14.4091C26.5808 14.5654 26.6686 14.7775 26.6686 14.9985V20.8336Z" stroke="#151515" stroke-width="1.66594" stroke-linecap="round" stroke-linejoin="round"/>
</g>
<defs>
<clipPath id="clip0_29_498">
<rect width="19.9913" height="19.9913" fill="white" transform="translate(9.99707 9.99707) scale(1.00073)"/>
</clipPath>
</defs>
</svg>
