<svg width="42" height="42" viewBox="0 0 42 42" fill="none" xmlns="http://www.w3.org/2000/svg">
<path d="M0 21C0 9.40202 9.40202 0 21 0C32.598 0 42 9.40202 42 21C42 32.598 32.598 42 21 42C9.40202 42 0 32.598 0 21Z" fill="#E5F240"/>
<path d="M27.1268 16.6237V13.9979C27.1268 13.7658 27.0346 13.5432 26.8704 13.379C26.7063 13.2149 26.4836 13.1227 26.2515 13.1227H14.8732C14.4089 13.1227 13.9637 13.3071 13.6354 13.6354C13.3071 13.9637 13.1227 14.4089 13.1227 14.8732C13.1227 15.3375 13.3071 15.7827 13.6354 16.111C13.9637 16.4393 14.4089 16.6237 14.8732 16.6237H28.002C28.2342 16.6237 28.4568 16.7159 28.6209 16.8801C28.7851 17.0442 28.8773 17.2668 28.8773 17.499V21M28.8773 21H26.2515C25.7872 21 25.342 21.1844 25.0137 21.5127C24.6854 21.841 24.501 22.2862 24.501 22.7505C24.501 23.2148 24.6854 23.66 25.0137 23.9883C25.342 24.3166 25.7872 24.501 26.2515 24.501H28.8773C29.1094 24.501 29.332 24.4088 29.4962 24.2446C29.6603 24.0805 29.7525 23.8579 29.7525 23.6257V21.8752C29.7525 21.6431 29.6603 21.4205 29.4962 21.2563C29.332 21.0922 29.1094 21 28.8773 21Z" stroke="#13131C" stroke-width="1.72901" stroke-linecap="round" stroke-linejoin="round"/>
<path d="M13.1227 14.8733V27.1268C13.1227 27.5911 13.3071 28.0363 13.6354 28.3646C13.9637 28.6929 14.4089 28.8773 14.8732 28.8773H28.002C28.2342 28.8773 28.4568 28.7851 28.6209 28.621C28.7851 28.4568 28.8773 28.2342 28.8773 28.0021V24.5011" stroke="#13131C" stroke-width="1.72901" stroke-linecap="round" stroke-linejoin="round"/>
</svg>
