<svg width="20" height="20" viewBox="0 0 20 20" fill="none" xmlns="http://www.w3.org/2000/svg">
<g clip-path="url(#clip0_62_516)">
<path d="M10 20C15.5228 20 20 15.5228 20 10C20 4.47715 15.5228 0 10 0C4.47715 0 0 4.47715 0 10C0 15.5228 4.47715 20 10 20Z" fill="#A41E1E"/>
<path d="M16.5705 7.03935C16.0033 6.64263 15.3967 6.21968 14.8033 5.8C14.7902 5.79017 14.777 5.78033 14.7607 5.7705C14.6951 5.72132 14.6197 5.66886 14.5279 5.63935L14.5213 5.63607C12.9344 5.25246 11.3213 4.85902 9.76065 4.47869C8.34426 4.13443 6.93115 3.79017 5.51475 3.44591C5.47869 3.43607 5.44262 3.42623 5.40328 3.4164C5.27541 3.38033 5.12787 3.34099 4.97049 3.36066C4.92459 3.36722 4.88524 3.38361 4.84918 3.40656L4.80983 3.43935C4.74754 3.49837 4.71475 3.57378 4.69836 3.6164L4.68852 3.64263V3.79345L4.69508 3.8164C5.59016 6.32459 6.50819 8.86886 7.39344 11.3312C8.07541 13.2262 8.7836 15.1902 9.47541 17.118C9.51803 17.2492 9.63934 17.3344 9.79016 17.3475H9.82295C9.96393 17.3475 10.0885 17.2787 10.1508 17.1672L12.7475 13.3803C13.3803 12.459 14.0131 11.5344 14.6459 10.6131C14.9049 10.2361 15.1639 9.85574 15.4229 9.47869C15.8492 8.85574 16.2885 8.21312 16.7246 7.58689L16.7475 7.5541V7.51476C16.7574 7.4 16.7607 7.16394 16.5705 7.03935ZM13.5279 8.41968C12.918 8.73771 12.2951 9.06558 11.6688 9.39017C12.0328 9 12.4 8.60656 12.7639 8.2164C13.2197 7.7246 13.6951 7.2164 14.1607 6.71804L14.1705 6.7082C14.2098 6.65574 14.259 6.60656 14.3115 6.5541C14.3475 6.51804 14.3869 6.48197 14.4229 6.43935C14.6656 6.60656 14.9115 6.77705 15.1475 6.94427C15.318 7.06558 15.4918 7.18689 15.6688 7.3082C14.9475 7.67541 14.2262 8.05246 13.5279 8.41968ZM11.9607 8.2623C11.4918 8.7705 11.0066 9.29181 10.5246 9.80656C9.59016 8.67214 8.63606 7.52132 7.71147 6.40984C7.2918 5.90492 6.86885 5.39673 6.44918 4.89181L6.4459 4.88853C6.35082 4.78033 6.25901 4.6623 6.16721 4.55082C6.10819 4.47541 6.0459 4.40328 5.9836 4.32787C6.36393 4.42623 6.74754 4.51804 7.12459 4.60656C7.45574 4.68525 7.8 4.76722 8.1377 4.85246C10.0393 5.31476 11.9443 5.77705 13.8459 6.23935C13.2131 6.91476 12.577 7.6 11.9607 8.2623ZM10.3115 14.6525C10.3475 14.3082 10.3869 13.9541 10.4197 13.6066C10.4492 13.3279 10.4787 13.0426 10.5082 12.7705C10.5541 12.3344 10.6033 11.882 10.6426 11.4393L10.6525 11.3607C10.6852 11.0787 10.718 10.7869 10.7377 10.4951C10.7738 10.4754 10.8131 10.4557 10.8557 10.4393C10.9049 10.4164 10.9541 10.3967 11.0033 10.3672C11.7607 9.9705 12.518 9.57378 13.2787 9.18033C14.0361 8.78689 14.8131 8.38033 15.5836 7.97705C14.882 8.99345 14.177 10.0197 13.4951 11.0197C12.9082 11.8754 12.3049 12.7574 11.7049 13.6262C11.4688 13.9738 11.2229 14.3279 10.9902 14.6689C10.7279 15.0492 10.459 15.4393 10.1967 15.8295C10.2295 15.4361 10.2688 15.0393 10.3115 14.6525ZM5.74098 5.10164C5.69836 4.98361 5.65246 4.8623 5.61311 4.74755C6.49836 5.8164 7.39016 6.89181 8.25901 7.93443C8.70819 8.47541 9.15737 9.01312 9.60655 9.55738C9.69508 9.65902 9.7836 9.76722 9.86885 9.87214C9.98033 10.0066 10.0918 10.1475 10.2131 10.282C10.1738 10.6197 10.141 10.9607 10.1049 11.2885C10.082 11.518 10.059 11.7475 10.0328 11.9803V11.9836C10.0229 12.1312 10.0033 12.2787 9.98688 12.423C9.96393 12.623 9.91147 13.0754 9.91147 13.0754L9.90819 13.0984C9.84918 13.7607 9.77705 14.4295 9.70819 15.0787C9.67869 15.3475 9.65246 15.623 9.62295 15.8984C9.60655 15.8492 9.58688 15.8 9.57049 15.7541C9.52131 15.623 9.47213 15.4853 9.42623 15.3508L9.07541 14.3771C7.96393 11.2853 6.85246 8.19673 5.74098 5.10164Z" fill="white"/>
</g>
<defs>
<clipPath id="clip0_62_516">
<rect width="20" height="20" fill="white"/>
</clipPath>
</defs>
</svg>
