<svg width="20" height="20" viewBox="0 0 20 20" fill="none" xmlns="http://www.w3.org/2000/svg">
<g clip-path="url(#clip0_62_520)">
<path d="M20 10C20 4.47715 15.5228 0 10 0C4.47715 0 0 4.47715 0 10C0 15.5228 4.47715 20 10 20C15.5228 20 20 15.5228 20 10Z" fill="#6C00F6"/>
<path d="M12.1558 5.53235L9.36511 7.13513V12.1374L7.82534 13.03L6.27611 12.1367V10.3507L7.82534 9.46613L8.82145 10.0438V8.59885L7.81661 8.02841L5.02664 9.6493V12.8555L7.82606 14.4677L10.616 12.8555V7.85397L12.1652 6.96063L13.7137 7.85397V9.63191L12.1652 10.5332L11.1604 9.95041V11.3881L12.1558 11.9622L14.9733 10.3595V7.13513L12.1558 5.53235Z" fill="white"/>
</g>
<defs>
<clipPath id="clip0_62_520">
<rect width="20" height="20" fill="white"/>
</clipPath>
</defs>
</svg>
