<svg width="14" height="14" viewBox="0 0 14 14" fill="none" xmlns="http://www.w3.org/2000/svg">
<g clip-path="url(#clip0_2_2743)">
<path d="M6.9952 12.8245C10.2147 12.8245 12.8245 10.2146 12.8245 6.99511C12.8245 3.77566 10.2147 1.16577 6.9952 1.16577C3.77575 1.16577 1.16586 3.77566 1.16586 6.99511C1.16586 10.2146 3.77575 12.8245 6.9952 12.8245Z" stroke="#939393" stroke-width="1.16587" stroke-linecap="round" stroke-linejoin="round"/>
<path d="M5.29886 5.24636C5.43591 4.85676 5.70642 4.52825 6.06248 4.31899C6.41853 4.10973 6.83716 4.03324 7.24421 4.10306C7.65126 4.17288 8.02047 4.3845 8.28644 4.70046C8.55241 5.01641 8.69798 5.4163 8.69736 5.82929C8.69736 6.99516 6.94856 7.57809 6.94856 7.57809" stroke="#939393" stroke-width="1.16587" stroke-linecap="round" stroke-linejoin="round"/>
<path d="M6.99521 9.90991H7.00104" stroke="#939393" stroke-width="1.16587" stroke-linecap="round" stroke-linejoin="round"/>
</g>
<defs>
<clipPath id="clip0_2_2743">
<rect width="13.9904" height="13.9904" fill="white"/>
</clipPath>
</defs>
</svg>
