<svg width="24" height="24" viewBox="0 0 24 24" fill="none" xmlns="http://www.w3.org/2000/svg">
  <!-- 扬声器主体 - 梯形喇叭 -->
  <path d="M4 8V16H8L14 20V4L8 8H4Z" stroke="#E5F240" stroke-width="2" fill="none"/>
  
  <!-- 声音波纹 - 右侧弧形线条 -->
  <path d="M16 6C16 8.21 14.21 10 12 10V8C13.1 8 14 7.1 14 6C14 4.9 13.1 4 12 4V2C14.21 2 16 3.79 16 6Z" stroke="#E5F240" stroke-width="2" fill="none"/>
  <path d="M18 4C18 6.21 16.21 8 14 8V6C15.1 6 16 5.1 16 4C16 2.9 15.1 2 14 2V0C16.21 0 18 1.79 18 4Z" stroke="#E5F240" stroke-width="2" fill="none"/>
</svg>
