<svg width="20" height="20" viewBox="0 0 20 20" fill="none" xmlns="http://www.w3.org/2000/svg">
<g clip-path="url(#clip0_62_459)">
<path d="M10 20C15.5228 20 20 15.5228 20 10C20 4.47715 15.5228 0 10 0C4.47715 0 0 4.47715 0 10C0 15.5228 4.47715 20 10 20Z" fill="#A41E1E"/>
<path d="M16.5705 7.03941C16.0033 6.64269 15.3967 6.21974 14.8033 5.80007C14.7902 5.79023 14.7771 5.78039 14.7607 5.77056C14.6951 5.72138 14.6197 5.66892 14.5279 5.63941L14.5213 5.63613C12.9344 5.25252 11.3213 4.85908 9.76067 4.47875C8.34428 4.13449 6.93116 3.79023 5.51477 3.44597C5.4787 3.43613 5.44264 3.4263 5.40329 3.41646C5.27542 3.38039 5.12788 3.34105 4.9705 3.36072C4.9246 3.36728 4.88526 3.38367 4.84919 3.40662L4.80985 3.43941C4.74755 3.49843 4.71477 3.57384 4.69837 3.61646L4.68854 3.64269V3.79351L4.69509 3.81646C5.59018 6.32466 6.50821 8.86892 7.39346 11.3312C8.07542 13.2263 8.78362 15.1902 9.47542 17.1181C9.51805 17.2492 9.63936 17.3345 9.79018 17.3476H9.82296C9.96395 17.3476 10.0885 17.2788 10.1508 17.1673L12.7476 13.3804C13.3803 12.4591 14.0131 11.5345 14.6459 10.6132C14.9049 10.2361 15.1639 9.8558 15.423 9.47875C15.8492 8.8558 16.2885 8.21318 16.7246 7.58695L16.7476 7.55416V7.51482C16.7574 7.40007 16.7607 7.164 16.5705 7.03941ZM13.5279 8.41974C12.918 8.73777 12.2951 9.06564 11.6689 9.39023C12.0328 9.00007 12.4 8.60662 12.7639 8.21646C13.2197 7.72466 13.6951 7.21646 14.1607 6.7181L14.1705 6.70826C14.2098 6.6558 14.259 6.60662 14.3115 6.55416C14.3476 6.5181 14.3869 6.48203 14.423 6.43941C14.6656 6.60662 14.9115 6.77712 15.1476 6.94433C15.318 7.06564 15.4918 7.18695 15.6689 7.30826C14.9476 7.67548 14.2262 8.05252 13.5279 8.41974ZM11.9607 8.26236C11.4918 8.77056 11.0066 9.29187 10.5246 9.80662C9.59018 8.6722 8.63608 7.52138 7.71149 6.4099C7.29182 5.90498 6.86887 5.39679 6.44919 4.89187L6.44591 4.88859C6.35083 4.78039 6.25903 4.66236 6.16723 4.55089C6.10821 4.47548 6.04591 4.40334 5.98362 4.32793C6.36395 4.4263 6.74755 4.5181 7.1246 4.60662C7.45575 4.68531 7.80001 4.76728 8.13772 4.85252C10.0394 5.31482 11.9443 5.77712 13.8459 6.23941C13.2131 6.91482 12.5771 7.60007 11.9607 8.26236ZM10.3115 14.6525C10.3476 14.3083 10.3869 13.9542 10.4197 13.6066C10.4492 13.3279 10.4787 13.0427 10.5082 12.7706C10.5541 12.3345 10.6033 11.882 10.6426 11.4394L10.6525 11.3607C10.6853 11.0788 10.718 10.787 10.7377 10.4951C10.7738 10.4755 10.8131 10.4558 10.8558 10.4394C10.9049 10.4165 10.9541 10.3968 11.0033 10.3673C11.7607 9.97056 12.518 9.57384 13.2787 9.18039C14.0361 8.78695 14.8131 8.38039 15.5836 7.97712C14.882 8.99351 14.1771 10.0197 13.4951 11.0197C12.9082 11.8755 12.3049 12.7574 11.7049 13.6263C11.4689 13.9738 11.223 14.3279 10.9902 14.6689C10.7279 15.0492 10.459 15.4394 10.1967 15.8296C10.2295 15.4361 10.2689 15.0394 10.3115 14.6525ZM5.741 5.10171C5.69837 4.98367 5.65247 4.86236 5.61313 4.74761C6.49837 5.81646 7.39018 6.89187 8.25903 7.93449C8.70821 8.47548 9.15739 9.01318 9.60657 9.55744C9.69509 9.65908 9.78362 9.76728 9.86887 9.8722C9.98034 10.0066 10.0918 10.1476 10.2131 10.282C10.1738 10.6197 10.141 10.9607 10.1049 11.2886C10.082 11.5181 10.059 11.7476 10.0328 11.9804V11.9837C10.023 12.1312 10.0033 12.2788 9.9869 12.423C9.96395 12.623 9.91149 13.0755 9.91149 13.0755L9.90821 13.0984C9.84919 13.7607 9.77706 14.4296 9.70821 15.0788C9.6787 15.3476 9.65247 15.623 9.62296 15.8984C9.60657 15.8492 9.5869 15.8001 9.5705 15.7542C9.52132 15.623 9.47214 15.4853 9.42624 15.3509L9.07542 14.3771C7.96395 11.2853 6.85247 8.19679 5.741 5.10171Z" fill="white"/>
</g>
<defs>
<clipPath id="clip0_62_459">
<rect width="20" height="20" fill="white"/>
</clipPath>
</defs>
</svg>
