<svg width="20" height="20" viewBox="0 0 20 20" fill="none" xmlns="http://www.w3.org/2000/svg">
<path d="M1.66602 7.49668C2.32877 7.49668 2.96438 7.75995 3.43301 8.22859C3.90165 8.69723 4.16493 9.33284 4.16493 9.99559C4.16493 10.6583 3.90165 11.2939 3.43301 11.7626C2.96438 12.2312 2.32877 12.4945 1.66602 12.4945V14.1604C1.66602 14.6023 1.84153 15.026 2.15396 15.3384C2.46638 15.6509 2.89012 15.8264 3.33196 15.8264H16.6595C17.1013 15.8264 17.5251 15.6509 17.8375 15.3384C18.1499 15.026 18.3254 14.6023 18.3254 14.1604V12.4945C17.6627 12.4945 17.0271 12.2312 16.5584 11.7626C16.0898 11.2939 15.8265 10.6583 15.8265 9.99559C15.8265 9.33284 16.0898 8.69723 16.5584 8.22859C17.0271 7.75995 17.6627 7.49668 18.3254 7.49668V5.83074C18.3254 5.3889 18.1499 4.96516 17.8375 4.65274C17.5251 4.34031 17.1013 4.16479 16.6595 4.16479H3.33196C2.89012 4.16479 2.46638 4.34031 2.15396 4.65274C1.84153 4.96516 1.66602 5.3889 1.66602 5.83074V7.49668Z" stroke="#F4F4F4" stroke-width="1.66594" stroke-linecap="round" stroke-linejoin="round"/>
<path d="M10.8286 4.16479V5.83074" stroke="#F4F4F4" stroke-width="1.66594" stroke-linecap="round" stroke-linejoin="round"/>
<path d="M10.8286 14.1605V15.8265" stroke="#F4F4F4" stroke-width="1.66594" stroke-linecap="round" stroke-linejoin="round"/>
<path d="M10.8286 9.16272V10.8287" stroke="#F4F4F4" stroke-width="1.66594" stroke-linecap="round" stroke-linejoin="round"/>
</svg>
