<svg width="18" height="18" viewBox="0 0 18 18" fill="none" xmlns="http://www.w3.org/2000/svg">
<path d="M14.25 5.25V3.00001C14.25 2.8011 14.171 2.61033 14.0303 2.46968C13.8897 2.32903 13.6989 2.25001 13.5 2.25001H3.75001C3.35218 2.25001 2.97065 2.40804 2.68935 2.68935C2.40804 2.97065 2.25001 3.35218 2.25001 3.75001C2.25001 4.14783 2.40804 4.52936 2.68935 4.81067C2.97065 5.09197 3.35218 5.25 3.75001 5.25H15C15.1989 5.25 15.3897 5.32902 15.5303 5.46967C15.671 5.61033 15.75 5.80109 15.75 6V9M15.75 9H13.5C13.1022 9 12.7206 9.15803 12.4393 9.43934C12.158 9.72064 12 10.1022 12 10.5C12 10.8978 12.158 11.2794 12.4393 11.5607C12.7206 11.842 13.1022 12 13.5 12H15.75C15.9489 12 16.1397 11.921 16.2803 11.7803C16.421 11.6397 16.5 11.4489 16.5 11.25V9.75C16.5 9.55109 16.421 9.36032 16.2803 9.21967C16.1397 9.07902 15.9489 9 15.75 9Z" stroke="#13131C" stroke-width="1.4178" stroke-linecap="round" stroke-linejoin="round"/>
<path d="M2.25001 3.74999V14.25C2.25001 14.6478 2.40804 15.0293 2.68935 15.3106C2.97065 15.5919 3.35218 15.75 3.75001 15.75H15C15.1989 15.75 15.3897 15.671 15.5303 15.5303C15.671 15.3897 15.75 15.1989 15.75 15V12" stroke="#13131C" stroke-width="1.4178" stroke-linecap="round" stroke-linejoin="round"/>
</svg>
