<svg width="21" height="21" viewBox="0 0 21 21" fill="none" xmlns="http://www.w3.org/2000/svg">
<path d="M17.2901 11.2386C17.2901 15.5611 14.2643 17.7224 10.668 18.9759C10.4796 19.0397 10.2751 19.0367 10.0887 18.9673C6.48377 17.7224 3.45801 15.5611 3.45801 11.2386V5.1871C3.45801 4.95782 3.54909 4.73793 3.71122 4.5758C3.87334 4.41368 4.09323 4.3226 4.32251 4.3226C6.05152 4.3226 8.21278 3.28519 9.71701 1.97115C9.90016 1.81467 10.1331 1.7287 10.374 1.7287C10.6149 1.7287 10.8479 1.81467 11.0311 1.97115C12.5439 3.29384 14.6966 4.3226 16.4256 4.3226C16.6548 4.3226 16.8747 4.41368 17.0369 4.5758C17.199 4.73793 17.2901 4.95782 17.2901 5.1871V11.2386Z" stroke="#939393" stroke-width="1.72901" stroke-linecap="round" stroke-linejoin="round"/>
</svg>
